{"title":"Planet.Dinosaur.Files.S01E06.Wierdest-Oj","uid":6793564,"size":368071108,"categoryP":"video","categoryS":"tv_shows","magnet":"?xt=urn:btih:a55c457c1d24717472e3f1379e395363f459e137&amp;dn=Planet.Dinosaur.Files.S01E06.Wierdest-Oj&amp;tr=udp%3A%2F%2Ftracker.openbittorrent.com%3A80&amp;tr=udp%3A%2F%2Fopen.demonii.com%3A1337&amp;tr=udp%3A%2F%2Ftracker.coppersurfer.tk%3A6969&amp;tr=udp%3A%2F%2Fexodus.desync.com%3A6969","seeders":0,"leechers":1,"uploader":"despo1ler","files":-1,"time":1320361506,"description":"[center]\n[URL=http://img7.imageshack.us/i/planetdinosaur.jpg/][IMG]http://img7.imageshack.us/img7/7870/planetdinosaur.jpg[/IMG][/URL]\n-=-=-=-=-=-=-=-=-=-=-=-\n\n[b]Planet Dinosaur Files[/b]\n\n6/6. Weirdest \n\nJem looks at weird dinosaurs such as the nothronychus, a carnivore turned vegetarian. \n\nCategory General Children's/Youth\n\nCast\nPresenter Jem Stansfield \n \n-=-=-=-=-=-=-=-=-=-\n\n[b]File info[/b]\n\nFormat                           : AVI\nFormat/Info                      : Audio Video Interleave\nFile size                        : 351 MiB\nDuration                         : 28mn 13s\nOverall bit rate                 : 1 738 Kbps\nWriting library                  : VirtualDub build 32842/release\n\nVideo\nID                               : 0\nFormat                           : MPEG-4 Visual\nFormat profile                   : Simple@L1\nFormat settings, BVOP            : No\nFormat settings, QPel            : No\nFormat settings, GMC             : No warppoints\nFormat settings, Matrix          : Default (H.263)\nCodec ID                         : XVID\nCodec ID/Hint                    : XviD\nDuration                         : 28mn 13s\nBit rate                         : 1 601 Kbps\nWidth                            : 720 pixels\nHeight                           : 420 pixels\nDisplay aspect ratio             : 16:9\nFrame rate                       : 25.000 fps\nColor space                      : YUV\nChroma subsampling               : 4:2:0\nBit depth                        : 8 bits\nScan type                        : Progressive\nCompression mode                 : Lossy\nBits/(Pixel*Frame)               : 0.212\nStream size                      : 323 MiB (92%)\nWriting library                  : Lavc52.41.0\n\nAudio\nID                               : 1\nFormat                           : MPEG Audio\nFormat version                   : Version 1\nFormat profile                   : Layer 3\nMode                             : Joint stereo\nMode extension                   : MS Stereo\nCodec ID                         : 55\nCodec ID/Hint                    : MP3\nDuration                         : 28mn 13s\nBit rate mode                    : Constant\nBit rate                         : 128 Kbps\nChannel(s)                       : 2 channels\nSampling rate                    : 48.0 KHz\nCompression mode                 : Lossy\nStream size                      : 25.8 MiB (7%)\nAlignment                        : Split accross interleaves\nInterleave, duration             : 40 ms (1.00 video frame)\nInterleave, preload duration     : 500 ms\n\n\nspoken language: Engish\n\n--------------------------------\n\n[b]Screenshots[/b]\n\n[URL=http://img214.imageshack.us/i/planetdinosaurfiless01e.jpg/][IMG]http://img214.imageshack.us/img214/6783/planetdinosaurfiless01e.jpg[/IMG][/URL]\n\n[b]Hash:[/b]\nA55C457C1D24717472E3F1379E395363F459E137\n\n[/center]\n\n","torrent":{"xt":"urn:btih:a55c457c1d24717472e3f1379e395363f459e137","amp;dn":"Planet.Dinosaur.Files.S01E06.Wierdest-Oj","amp;tr":["udp%3A%2F%2Ftracker.openbittorrent.com%3A80","udp%3A%2F%2Fopen.demonii.com%3A1337","udp%3A%2F%2Ftracker.coppersurfer.tk%3A6969","udp%3A%2F%2Fexodus.desync.com%3A6969"],"infoHash":"a55c457c1d24717472e3f1379e395363f459e137","infoHashBuffer":{"type":"Buffer","data":[165,92,69,124,29,36,113,116,114,227,241,55,158,57,83,99,244,89,225,55]},"announce":[],"urlList":[]}}